<svg width="603" height="603" viewBox="0 0 603 603" fill="none" xmlns="http://www.w3.org/2000/svg">
<line x1="3" y1="1.5" x2="603" y2="1.5" stroke="white" stroke-width="3"/>
<line x1="3" y1="1.5" x2="603" y2="1.5" stroke="white" stroke-width="3"/>
<line x1="3" y1="101.5" x2="603" y2="101.5" stroke="white" stroke-width="3"/>
<line x1="3" y1="201.5" x2="603" y2="201.5" stroke="white" stroke-width="3"/>
<line x1="3" y1="301.5" x2="603" y2="301.5" stroke="white" stroke-width="3"/>
<line x1="3" y1="401.5" x2="603" y2="401.5" stroke="white" stroke-width="3"/>
<line x1="3" y1="501.5" x2="603" y2="501.5" stroke="white" stroke-width="3"/>
<line x1="3" y1="601.5" x2="603" y2="601.5" stroke="white" stroke-width="3"/>
<line x1="1.5" y1="603" x2="1.49996" y2="3" stroke="white" stroke-width="3"/>
<line x1="1.5" y1="603" x2="1.49996" y2="3" stroke="white" stroke-width="3"/>
<line x1="101.5" y1="603" x2="101.5" y2="3" stroke="white" stroke-width="3"/>
<line x1="201.5" y1="603" x2="201.5" y2="3" stroke="white" stroke-width="3"/>
<line x1="301.5" y1="603" x2="301.5" y2="3" stroke="white" stroke-width="3"/>
<line x1="401.5" y1="603" x2="401.5" y2="3" stroke="white" stroke-width="3"/>
<line x1="501.5" y1="603" x2="501.5" y2="3" stroke="white" stroke-width="3"/>
<line x1="601.5" y1="603" x2="601.5" y2="3" stroke="white" stroke-width="3"/>
</svg>
