<svg width="425" height="173" viewBox="0 0 425 173" fill="none" xmlns="http://www.w3.org/2000/svg">
<path d="M20.925 47.3066H12.4393V83.6952H0V0.896484H12.4393V34.0744H20.925V0.896484H33.3643V83.7925H20.925V47.3066Z" fill="black"/>
<path d="M54.7714 84.6692H52.3607C42.4286 84.6692 37.125 79.2207 37.125 69.0046V52.367H49.4679V66.8641C49.4679 70.6586 50.7214 72.7018 53.5179 72.7018C56.5071 72.7018 57.5679 70.6586 57.5679 65.5992V63.7506C57.5679 57.8156 56.9893 55.7724 52.4571 49.8373L44.6464 39.4267C39.3429 32.5187 37.8 27.1674 37.8 18.8972V16.2703C37.8 5.27582 43.2964 0.119141 53.1321 0.119141H55.4464C65.6679 0.119141 69.7179 4.69204 69.7179 14.5189V28.1403H57.6643V16.173C57.6643 13.3514 57.0857 11.3082 54.0964 11.3082C51.1071 11.3082 50.4321 13.1568 50.4321 17.1459V18.7026C50.4321 23.3728 51.3 25.9025 55.5429 31.4484L63.45 41.7618C69.0429 49.1562 70.875 53.34 70.875 62.6804V65.3074C70.875 77.4693 65.6679 84.6692 54.7714 84.6692Z" fill="black"/>
<path d="M102.793 0.896484V12.9612H86.8826V34.6581H99.3219V47.2093H86.8826V71.1441H103.468V83.6952H74.4434V0.896484H102.793Z" fill="black"/>
<path d="M137.122 68.1295H128.057L126.418 83.6968H115.232L125.261 0.800781H140.015L150.718 83.6968H138.665L137.122 68.1295ZM135.772 55.7729L132.493 25.1247L129.311 55.7729H135.772Z" fill="black"/>
<path d="M165.279 83.7925H152.84V0.896484H173.09C181.383 0.896484 185.529 4.49643 185.529 13.7395V28.4312C185.529 35.3392 182.347 37.9662 180.129 39.0365C182.926 40.3013 185.529 42.5391 185.529 48.085V77.1764C185.529 80.4845 186.204 82.0412 186.783 83.3061V83.8898H174.44C173.861 83.0142 173.186 81.5547 173.186 77.0791V51.9768C173.186 48.2796 172.511 46.7228 168.558 46.7228H165.376L165.279 83.7925ZM165.279 34.95H168.558C172.029 34.95 173.09 32.7122 173.09 29.015V17.4368C173.09 13.8368 172.318 12.0855 168.558 12.0855H165.279V34.95Z" fill="black"/>
<path d="M210.697 12.8639V83.6952H198.354V12.8639H187.844V0.896484H221.208V12.9612L210.697 12.8639Z" fill="black"/>
<path d="M254.571 68.1295H245.507L243.867 83.6968H232.682L242.71 0.800781H257.464L268.167 83.6968H256.114L254.571 68.1295ZM253.221 55.7729L249.942 25.1247L246.76 55.7729H253.221Z" fill="black"/>
<path d="M281.475 0.896484L292.179 45.3607V0.896484H303.558V83.7925H293.433L281.475 36.1176V83.7925H270.193V0.896484H281.475Z" fill="black"/>
<path d="M308.186 0.896484H327.375C338.078 0.896484 341.357 7.02612 341.357 16.853V67.3495C341.357 77.4683 337.596 83.7925 327.375 83.7925H308.282V0.896484H308.186ZM320.721 71.7279H323.711C327.471 71.7279 328.532 69.6846 328.532 65.3063V18.6043C328.532 13.8368 327.278 12.1828 324.193 12.1828H320.625V71.7279H320.721Z" fill="black"/>
<path d="M0 88.0742H19.0929C29.7964 88.0742 33.075 94.2039 33.075 104.031V154.527C33.075 164.646 29.3143 170.97 19.0929 170.97H0V88.0742ZM12.4393 159.003H15.4286C19.1893 159.003 20.25 156.96 20.25 152.581V105.879C20.25 101.112 18.9964 99.4578 15.9107 99.4578H12.3429V159.003H12.4393Z" fill="black"/>
<path d="M65.9562 88.0742V100.139H50.0455V121.836H62.4848V134.387H50.0455V158.322H66.6312V170.873H37.5098V88.0742H65.9562Z" fill="black"/>
<path d="M86.496 171.846H84.0853C74.1532 171.846 68.8496 166.397 68.8496 156.181V139.544H81.1925V154.041C81.1925 157.835 82.446 159.878 85.2425 159.878C88.2318 159.878 89.2925 157.835 89.2925 152.776V150.927C89.2925 144.992 88.7139 142.949 84.1818 137.014L76.2746 126.798C70.971 119.89 69.4282 114.538 69.4282 106.268V103.641C69.4282 92.6469 74.9246 87.4902 84.7603 87.4902H87.0746C97.3925 87.4902 101.346 92.0631 101.346 101.89V115.511H89.2925V103.544C89.2925 100.722 88.7139 98.6793 85.7246 98.6793C82.7353 98.6793 82.0603 100.528 82.0603 104.517V106.074C82.0603 110.744 82.9282 113.274 87.171 118.819L95.0782 129.133C100.671 136.527 102.503 140.711 102.503 150.051V152.678C102.6 164.646 97.3925 171.846 86.496 171.846Z" fill="black"/>
<path d="M118.607 170.97H106.168V88.0742H118.607V170.97Z" fill="black"/>
<path d="M134.807 172.139C127.478 172.139 122.85 165.523 122.85 156.961V105.102C122.85 95.8589 126.417 87.2969 138.182 87.2969H140.592C153.996 87.2969 155.539 96.0535 155.539 105.88V114.345H143.389V105.005C143.389 101.307 142.521 99.3616 139.435 99.3616C136.832 99.3616 135.578 101.405 135.578 105.005V153.458C135.578 157.35 137.121 159.393 139.628 159.393C142.81 159.393 144.257 157.155 144.257 154.042V133.318H138.664V120.572H156.117V170.971H149.078C148.982 170.485 148.017 166.398 146.957 162.798C146.089 165.62 141.846 172.042 135.578 172.042H134.807V172.139Z" fill="black"/>
<path d="M171.739 88.0742L182.443 132.538V88.0742H193.821V170.97H183.696L171.739 123.295V170.97H160.457V88.0742H171.739Z" fill="black"/>
<path d="M226.414 171.846H224.003C214.071 171.846 208.768 166.397 208.768 156.181V139.544H221.11V154.041C221.11 157.835 222.364 159.878 225.16 159.878C228.15 159.878 229.21 157.835 229.21 152.776V150.927C229.21 144.992 228.632 142.949 224.1 137.014L216.193 126.798C210.889 119.89 209.346 114.538 209.346 106.268V103.641C209.346 92.6469 214.843 87.4902 224.678 87.4902H226.993C237.214 87.4902 241.264 92.0631 241.264 101.89V115.511H229.21V103.544C229.21 100.722 228.632 98.6793 225.643 98.6793C222.653 98.6793 221.978 100.528 221.978 104.517V106.074C221.978 110.744 222.846 113.274 227.089 118.819L234.996 129.133C240.589 136.527 242.421 140.711 242.421 150.051V152.678C242.518 164.646 237.31 171.846 226.414 171.846Z" fill="black"/>
<path d="M266.432 154.139V134.874H278.679V154.041C278.679 162.993 275.786 171.944 263.732 171.944H260.936C248.304 171.944 245.604 162.798 245.604 154.431V103.837C245.604 95.3721 249.268 87.1992 260.55 87.1992H263.443C277.136 87.1992 278.679 96.345 278.679 104.421V119.21H266.432V104.615C266.432 101.015 265.371 99.1666 262.189 99.1666C259.104 99.1666 258.332 100.918 258.332 104.615V153.847C258.332 157.544 259.586 159.49 262.286 159.49C265.371 159.782 266.432 157.544 266.432 154.139Z" fill="black"/>
<path d="M303.653 134.582H295.168V170.97H282.729V88.0742H295.168V121.252H303.653V88.0742H316.093V170.97H303.653V134.582Z" fill="black"/>
<path d="M354.567 152.485C354.567 164.063 350.71 171.944 338.657 171.944H336.535C324.578 171.944 320.432 164.063 320.432 152.485V106.367C320.432 94.8859 324.771 87.2969 336.439 87.2969H338.56C350.71 87.2969 354.567 94.886 354.567 106.27V152.485ZM341.839 105.686C341.839 101.307 340.392 99.3616 337.5 99.3616C334.317 99.3616 333.064 101.502 333.064 105.686V153.361C333.064 156.961 334.028 159.685 337.596 159.685C340.875 159.685 341.839 156.863 341.839 153.361V105.686Z" fill="black"/>
<path d="M392.657 152.485C392.657 164.063 388.8 171.944 376.747 171.944H374.625C362.668 171.944 358.521 164.063 358.521 152.485V106.367C358.521 94.8859 362.861 87.2969 374.529 87.2969H376.65C388.8 87.2969 392.657 94.886 392.657 106.27V152.485ZM379.929 105.686C379.929 101.307 378.482 99.3616 375.589 99.3616C372.407 99.3616 371.154 101.502 371.154 105.686V153.361C371.154 156.961 372.118 159.685 375.686 159.685C378.964 159.685 379.929 156.863 379.929 153.361V105.686Z" fill="black"/>
<path d="M409.435 88.0742V158.127H424.671V170.97H396.996V88.0742H409.435Z" fill="black"/>
</svg>
